<?xml version="1.0" standalone="no"?>
<!DOCTYPE svg PUBLIC "-//W3C//DTD SVG 20010904//EN" "http://www.w3.org/TR/2001/REC-SVG-20010904/DTD/svg10.dtd">
<svg version="1.0" xmlns="http://www.w3.org/2000/svg"
    width="255.000000pt" height="256.000000pt" viewBox="0 0 255.000000 256.000000"
    preserveAspectRatio="xMidYMid meet">
    <metadata> Created by potrace 1.12, written by Peter Selinger 2001-2015 </metadata>
    <g transform="translate(-0.500000,256.000000) scale(0.100000,-0.100000)"
        fill="#d43520" stroke="none">
        <path
            d="M102 2539 c-26 -13 -55 -39 -70 -62 l-27 -41 0 -1156 0 -1156 27 -41
c16 -24 44 -49 70 -62 l44 -21 1134 0 1134 0 44 21 c26 13 54 38 70 62 l27 41
0 1156 0 1156 -27 41 c-16 24 -44 49 -70 62 l-44 21 -1135 0 -1134 0 -43 -21z
m570 -360 c115 -58 149 -222 67 -323 -114 -137 -342 -86 -378 86 -39 181 143
320 311 237z m1206 -570 c101 -33 190 -111 238 -205 56 -113 57 -125 61 -591
l4 -433 -190 0 -190 0 -3 383 c-3 375 -3 383 -26 428 -34 69 -87 103 -173 107
-56 4 -76 0 -111 -18 -56 -28 -95 -65 -121 -115 -21 -39 -22 -53 -25 -413 l-3
-372 -189 0 -190 0 0 610 0 610 180 0 180 0 0 -85 0 -84 46 49 c134 143 323
191 512 129z m-1118 -619 l0 -610 -190 0 -190 0 0 610 0 610 190 0 190 0 0
-610z" />
    </g>
</svg>